<svg id="Layer_1" height="512" viewBox="0 0 512 512" width="512" xmlns="http://www.w3.org/2000/svg" data-name="Layer 1"><path d="m303.01 103.86c69.51 4.99 152.34 74.31 152.34 194.33 0 133.56-105 202.81-193.6 202.81-86.6 0-205.1-73.85-205.1-202.81 0-127.6 77.7-189.34 158.04-195.57a.843.843 0 0 0 -.04-.23c-12.73-26.38-22.89-91.39-22.89-91.39s25.12 18.99 37.2 45.92l15.53-45.92a220.673 220.673 0 0 1 15.54 56.38c1.83 14.17 20.52-53.34 20.52-53.34s12.27 21.7 9.97 45.86l29.72-37.39s-2.68 56.38-17.06 80.34a3.357 3.357 0 0 0 -.17 1.01z" fill="#f43b3b"/><path d="m340.53 418.38c-86.6 0-205.1-73.85-205.1-202.81 0-38.006 6.895-70.166 18.7-96.759-54.8 26.432-97.48 84.814-97.48 179.379 0 128.96 118.5 202.81 205.1 202.81 64.382 0 137.41-36.578 172.53-107.815-29.797 16.715-62.774 25.195-93.75 25.195z" fill="#d61d1d"/><g opacity=".8"><path d="m100.994 347.221a6 6 0 0 1 -5.851-4.7 205.014 205.014 0 0 1 -4.783-44.331 273.119 273.119 0 0 1 6.265-59.634 6 6 0 1 1 11.709 2.629 261.1 261.1 0 0 0 -5.974 57.005 193.077 193.077 0 0 0 4.5 41.731 6.006 6.006 0 0 1 -5.863 7.3z" fill="#e9e9e9"/></g><g opacity=".8"><path d="m121.376 398.031a5.993 5.993 0 0 1 -5.05-2.752 196.57 196.57 0 0 1 -12.832-23.211 6 6 0 0 1 10.873-5.076 184.516 184.516 0 0 0 12.047 21.789 6 6 0 0 1 -5.038 9.25z" fill="#e9e9e9"/></g></svg>